<svg width="1024" height="1024" viewBox="0 0 1024 1024" fill="none" xmlns="http://www.w3.org/2000/svg">
<path d="M642.587 227.299C682.603 258.861 719.027 307.757 729.07 358.888C730.895 378.76 730.895 378.76 729.07 388.469C722.202 395.293 718.826 396.462 709.07 397.881C696.665 396.14 693.971 392.673 686.044 383.091C682.358 375.576 679.68 367.806 676.968 359.897C662.372 320.31 637.555 280.528 599.193 260.02C544.229 234.921 483.121 225.455 425.197 245.944C400.828 255.508 380.052 268.816 360.657 286.281C358.754 287.904 356.851 289.526 354.89 291.198C330.819 313.105 316.745 342.439 314.374 374.666C313.31 406.848 322.314 431.073 343.461 455.257C361.805 473.155 386.652 482.784 409.629 493.405C411.55 494.318 413.47 495.231 415.449 496.171C417.189 496.984 418.929 497.796 420.722 498.633C425.197 501.413 425.197 501.413 430.575 509.481C431.942 519.961 431.461 524.286 425.533 533.179C418.387 540.535 416.258 541.603 405.995 542.433C393.983 541.643 385.569 538.524 374.775 533.515C372.896 532.662 371.017 531.809 369.08 530.929C326.432 511.1 287.9 482.233 270.287 437.136C261.506 412.448 256.487 387.4 263.848 361.578C212.658 384.006 181.861 422.862 161.387 473.828C150.68 506.751 152.799 545.325 167.039 576.709C178.087 596.811 178.087 596.811 196.619 608.979C202.022 607.26 207.397 605.455 212.754 603.601C224.54 601.725 232.302 602.209 242.335 609.315C247.713 617.047 247.713 617.047 249.394 625.114C247.69 633.291 245.743 637.768 239.498 643.371C232.437 647.767 225.103 650.337 217.292 653.182C190.891 662.807 175.074 675.524 161.66 700.41C151.865 723.118 152.817 753.103 161.891 776C174.361 801.793 193.268 815.891 219.004 826.748C283.69 848.377 360.961 822.641 419.405 794.731C508.69 750.18 585.865 682.283 656.127 612.341C658.014 610.466 659.901 608.592 661.845 606.661C677.606 590.851 692.838 574.579 706.045 556.541C708.036 553.837 708.036 553.837 710.068 551.078C711.014 549.775 711.96 548.472 712.936 547.129C696.551 532.094 679.834 517.642 662.514 503.693C651.223 494.421 651.223 494.421 650.245 486.791C651.265 478.421 652.648 476.993 659.153 471.833C666.099 469.122 666.099 469.122 674.584 466.696C679.404 465.302 679.404 465.302 684.322 463.88C687.865 462.888 691.408 461.897 694.952 460.908C698.616 459.867 702.28 458.826 705.944 457.783C718.119 454.34 730.314 450.975 742.516 447.63C744.749 447.018 746.982 446.405 749.283 445.774C763.177 441.969 777.083 438.207 791.001 434.491C795.524 433.283 800.044 432.07 804.564 430.851C810.939 429.136 817.321 427.449 823.705 425.77C825.593 425.259 827.48 424.748 829.425 424.221C843.557 420.556 855.381 417.586 868.402 425.109C875.711 433.045 876.052 436.954 876.973 447.63C876.159 454.914 875.141 461.852 873.78 469.028C873.225 472.128 873.225 472.128 872.658 475.29C871.437 482.043 870.175 488.787 868.906 495.531C868.04 500.21 867.173 504.889 866.307 509.568C864.077 521.545 861.796 533.512 859.497 545.476C858.19 552.295 856.901 559.117 855.615 565.94C853.656 576.296 851.633 586.638 849.555 596.971C848.79 600.809 848.043 604.65 847.313 608.494C846.293 613.831 845.195 619.153 844.094 624.473C843.496 627.467 842.898 630.461 842.281 633.546C838.618 643.092 834.473 646.624 825.88 652.005C815.659 652.788 809.798 651.547 801.773 645.019C796.165 639.413 790.916 633.616 785.711 627.635C783.872 625.595 782.033 623.555 780.138 621.453C775.623 616.433 771.153 611.38 766.718 606.29C754.471 608.605 748.189 615.772 739.785 624.463C738.24 626.026 736.694 627.589 735.102 629.199C730.159 634.206 725.244 639.238 720.331 644.274C713.884 650.846 707.426 657.407 700.96 663.96C699.406 665.535 697.853 667.111 696.251 668.734C685.226 679.853 673.852 690.357 661.842 700.41C658.927 702.96 656.017 705.516 653.112 708.078C629.065 729.053 604.082 748.604 578.478 767.639C576.813 768.881 575.149 770.123 573.433 771.402C551.543 787.649 528.971 802.224 505.38 815.878C500.742 818.587 496.151 821.378 491.564 824.174C415.611 869.602 315.88 904.549 226.704 884.617C186.599 874.45 147.775 854.406 125.672 818.372C110.843 793.017 103.67 769.041 104.012 739.571C104.032 737.096 104.052 734.622 104.073 732.073C104.523 713.521 107.046 698.093 115.945 681.586C117.179 679.253 118.413 676.92 119.684 674.517C127.785 660.212 137.145 647.994 148.215 635.871C147.043 634.529 145.871 633.188 144.664 631.805C111.467 591.782 101.594 545.798 104.516 494.978C110.236 435.328 149.451 378.062 194.445 340.527C218.295 322.452 247.779 309.883 277.682 307.028C283.325 305.517 283.325 305.517 285.466 299.107C286.319 296.65 287.172 294.192 288.05 291.66C322.779 236.694 375.778 201.624 438.642 186.783C504.607 172.41 587.924 187.524 642.587 227.299Z" fill="white"/>
<path d="M807.056 133C813.611 133.431 813.611 133.431 820.502 135.689C823.695 140.889 823.695 140.889 825.88 147.622C829.449 157.587 833.128 167.286 837.645 176.867C839.09 180.013 839.09 180.013 840.565 183.222C850.842 198.742 866.178 206.289 882.52 214.011C916.517 230.362 916.517 230.362 919.496 238.381C919.745 240.794 919.745 240.794 920 243.255C908.427 253.114 894.456 258.346 880.671 264.401C863.311 272.283 848.697 280.73 840.334 298.719C839.256 301.027 838.178 303.336 837.067 305.715C832.806 315.901 829.092 326.231 825.596 336.703C823.191 342.754 823.191 342.754 817.812 348.132C811.247 348.3 811.247 348.3 804.367 345.443C801.027 339.009 798.71 333.422 796.467 326.619C779.93 281.699 751.404 264.479 710.247 243.255C710.906 236.958 710.906 236.958 712.936 229.809C717.718 225.985 717.718 225.985 723.902 222.992C726.138 221.87 728.374 220.749 730.678 219.594C734.208 217.912 734.208 217.912 737.81 216.195C767.026 202.393 767.026 202.393 785.711 176.867C787.056 174.038 788.401 171.209 789.787 168.295C794.045 158.935 798.28 149.569 802.318 140.112C804.367 135.689 804.367 135.689 807.056 133Z" fill="white"/>
</svg>
